<svg
  width="240px"
  height="100px"
  viewBox="0 0 1755 470"
  version="1.1"
  xmlns="http://www.w3.org/2000/svg"
  xmlns:xlink="http://www.w3.org/1999/xlink"
>
  <g>
    <path
      opacity="0.7"
      d="M239.57,160.938081 L143.12,34.2880805 C111.29,39.6580805 85.61,53.2880805 67.85,74.4980805 C57.6612894,86.5618624 50.3715149,100.799329 46.54,116.118081 L96.9,160.888081 L261.43,307.128081 L308.74,349.188081 C309.370152,349.741246 309.669051,350.58119 309.53,351.408081 C309.42,352.058081 307.47,363.198081 299.82,377.508081 L351,307.128081 L239.57,160.938081 Z M254.1,307.128081 L89.56,160.888081 L42.26,118.828081 C41.6298483,118.274916 41.330949,117.434971 41.47,116.608081 C41.58,115.958081 43.53,104.818081 51.18,90.5080805 L0,160.888081 L111.43,307.128081 L207.88,433.728081 C239.71,428.358081 265.39,414.728081 283.15,393.518081 C293.341672,381.457695 300.628805,367.218705 304.45,351.898081 L254.1,307.128081 Z"
      fill="#2F97DD"
    ></path>
    <path
      d="M89.56,160.888081 L0,160.888081 C0,160.888081 0,42.6980805 110.51,8.92808052 C114.07,7.83808052 117.73,6.83808052 121.51,5.92808052 C139.212065,1.84330026 157.333397,-0.143702607 175.5,0.00808052295 C351,0.00808052295 351,160.888081 351,160.888081 L96.9,160.888081 L46.54,116.118081 C50.3715149,100.799329 57.6612894,86.5618624 67.85,74.4980805 C85.61,53.2880805 111.29,39.6580805 143.12,34.2880805 C153.822199,32.5231056 164.653319,31.6567498 175.5,31.6980805 C222.5,31.6980805 259.71,46.4980805 283.15,74.4980805 C300.89,95.6880805 304.68,117.198081 304.72,117.408081 C304.986477,118.690188 306.217505,119.533337 307.509268,119.318491 C308.801031,119.103645 309.69287,117.90742 309.53,116.608081 C309.38,115.688081 305.53,93.7580805 287.06,71.6080805 C256.24,34.6080805 209.38,26.8580805 175.5,26.8580805 C163.533694,26.8221972 151.58857,27.8664334 139.81,29.9780805 C115.37,34.4680805 89.51,44.6480805 69.25,65.7080805 C67.43,67.5880805 65.66,69.5480805 63.94,71.6080805 C59.0584201,77.4603281 54.7831949,83.792754 51.18,90.5080805 C43.53,104.818081 41.58,115.958081 41.47,116.608081 C41.330949,117.434971 41.6298483,118.274916 42.26,118.828081 L89.56,160.888081 Z M308.74,349.188081 C309.370152,349.741246 309.669051,350.58119 309.53,351.408081 C309.42,352.058081 307.47,363.198081 299.82,377.508081 C296.219126,384.237289 291.943837,390.583212 287.06,396.448081 C285.34,398.508081 283.57,400.448081 281.75,402.348081 C261.49,423.408081 235.64,433.588081 211.19,438.078081 C199.41143,440.189728 187.466306,441.233964 175.5,441.198081 C141.62,441.198081 94.76,433.428081 63.94,396.448081 C45.45,374.258081 41.62,352.328081 41.47,351.448081 C41.3071305,350.148741 42.1989691,348.952516 43.4907322,348.73767 C44.7824953,348.522824 46.0135227,349.365973 46.28,350.648081 C46.28,350.858081 50.11,372.368081 67.85,393.558081 C91.29,421.558081 128.52,436.358081 175.5,436.358081 C186.346681,436.399411 197.177801,435.533055 207.88,433.768081 C239.71,428.398081 265.39,414.768081 283.15,393.558081 C293.341672,381.497695 300.628805,367.258705 304.45,351.938081 L254.1,307.128081 L0,307.128081 C0,307.128081 0,468.008081 175.5,468.008081 C193.67034,468.15737 211.795079,466.167005 229.5,462.078081 C233.29,461.178081 236.95,460.178081 240.5,459.078081 C351,425.318081 351,307.128081 351,307.128081 L261.43,307.128081 L308.74,349.188081 Z"
      fill="#FD2965"
    ></path>
  </g>

  <rect fill="#6DB1F7" x="1207" y="1" width="134" height="467"></rect>
  <rect fill-opacity="0.6" fill="#4B65E6" x="1213" y="9" width="100" height="63"></rect>
  <path
    d="M1225.56389,29 L1227.43611,29 C1228.32763,29 1228.65092,29.0928256 1228.97685,29.2671327 C1229.30277,29.4414398 1229.55856,29.6972284 1229.73287,30.0231543 C1229.90717,30.3490802 1230,30.6723665 1230,31.5638852 L1230,439.436115 C1230,440.327634 1229.90717,440.65092 1229.73287,440.976846 C1229.55856,441.302772 1229.30277,441.55856 1228.97685,441.732867 C1228.65092,441.907174 1228.32763,442 1227.43611,442 L1225.56389,442 C1224.67237,442 1224.34908,441.907174 1224.02315,441.732867 C1223.69723,441.55856 1223.44144,441.302772 1223.26713,440.976846 C1223.09283,440.65092 1223,440.327634 1223,439.436115 L1223,31.5638852 C1223,30.6723665 1223.09283,30.3490802 1223.26713,30.0231543 C1223.44144,29.6972284 1223.69723,29.4414398 1224.02315,29.2671327 C1224.34908,29.0928256 1224.67237,29 1225.56389,29 Z"
    fill="#FFFFFF"
  ></path>
  <g transform="translate(385, 1)" fill-rule="nonzero">
    <g>
      <path
        d="M87.75,0 L0,0 L0,146.25 L109.6875,146.25 L109.6875,468 L241.3125,468 L241.3125,146.25 L351,146.25 L351,0 L87.75,0 Z M329.0625,31.69 L133.455,31.69 L133.455,438.75 C133.455,440.097575 132.635681,441.19 131.625,441.19 C130.614319,441.19 129.795,440.097575 129.795,438.75 L129.795,31.69 L21.9375,31.69 C20.9268189,31.69 20.1075,30.5975748 20.1075,29.25 C20.1075,27.9024252 20.9268189,26.81 21.9375,26.81 L329.0625,26.81 C330.073181,26.81 330.8925,27.9024252 330.8925,29.25 C330.8925,30.5975748 330.073181,31.69 329.0625,31.69 Z"
        fill="#FA991A"
      ></path>
      <path
        opacity="0.7"
        d="M133.455,162.5 L133.455,438.75 C133.455,440.097575 132.635681,441.19 131.625,441.19 C130.614319,441.19 129.795,440.097575 129.795,438.75 L129.795,149.5 L96.66,31.69 L87.75,31.69 L87.75,468 L219.375,468 L133.455,162.5 Z M87.75,0 L87.75,26.81 L95.295,26.81 L87.75,0 Z"
        fill="#F9D611"
      ></path>
    </g>
  </g>
  <g transform="translate(770, 1)" fill-rule="nonzero">
    <g>
      <path
        d="M203.818495,243 L203.818495,450 C203.818495,451.347575 202.780469,452.44 201.5,452.44 C200.219531,452.44 199.181505,451.347575 199.181505,450 L199.181505,243 C199.185571,242.590269 199.286824,242.188096 199.476068,241.83 L141.637225,162.44 L141.637225,468 L261.362775,468 L261.362775,162.44 L203.523932,241.83 C203.713176,242.188096 203.814429,242.590269 203.818495,243 L203.818495,243 Z"
        fill="#FD2965"
      ></path>
      <polygon
        fill="#FD2965"
        points="141.637225 117 141.637225 154.42 201.5 236.6 261.362775 154.42 261.362775 117"
      ></polygon>
      <path
        opacity="0.7"
        d="M0,0 L141.637225,234.07 L199.181505,329.17 L199.181505,243 C199.185571,242.590269 199.286824,242.188096 199.476068,241.83 L141.637225,162.44 L35.0434783,16.11 C34.5342661,15.4186911 34.414178,14.4939969 34.7284498,13.6842408 C35.0427217,12.8744848 35.7436082,12.302688 36.5670922,12.1842408 C37.3905762,12.0657937 38.2115509,12.4186911 38.720763,13.11 L141.637225,154.42 L201.5,236.6 L261.362775,154.42 L364.288739,13.14 C364.797951,12.4486911 365.618926,12.0957937 366.44241,12.2142408 C367.265894,12.332688 367.96678,12.9044848 368.281052,13.7142408 C368.595324,14.5239969 368.475236,15.4486911 367.966024,16.14 L261.362775,162.44 L203.523932,241.83 C203.713176,242.188096 203.814429,242.590269 203.818495,243 L203.818495,329.17 L261.362775,234.07 L403,0 L0,0 Z"
        fill="#6228F1"
      ></path>
    </g>
  </g>
  <rect
    fill-opacity="0"
    fill="#333333"
    fill-rule="nonzero"
    x="1699"
    y="2"
    width="46"
    height="46"
  ></rect>
  <g transform="translate(1375, 0)" fill-rule="nonzero">
    <path
      opacity="0.7"
      d="M126.666667,286.840708 L126.666667,0 L0,0 L0,468 L380,468 L380,286.840708 L126.666667,286.840708 Z M30.7818519,30.1932154 C30.7818519,28.8021858 32.0361178,27.6745335 33.5833333,27.6745335 C35.1305488,27.6745335 36.3848148,28.8021858 36.3848148,30.1932154 L36.3848148,435.288103 L335.833333,435.288103 C336.874915,435.228061 337.867264,435.693572 338.408296,436.496018 C338.949327,437.298464 338.949327,438.304782 338.408296,439.107228 C337.867264,439.909675 336.874915,440.375186 335.833333,440.315144 L33.5833333,440.315144 C32.0361178,440.315144 30.7818519,439.187492 30.7818519,437.796462 L30.7818519,30.1932154 Z"
      fill="#6228F1"
    ></path>
    <path
      d="M36.3848148,435.288103 L335.833333,435.288103 C336.874915,435.228061 337.867264,435.693572 338.408296,436.496018 C338.949327,437.298464 338.949327,438.304782 338.408296,439.107228 C337.867264,439.909675 336.874915,440.375186 335.833333,440.315144 L33.5833333,440.315144 C32.0361178,440.315144 30.7818519,439.187492 30.7818519,437.796462 L30.7818519,347.227138 L16.7859259,347.227138 L16.7859259,452.898231 L369.416667,452.898231 L369.416667,347.227138 L36.3848148,347.227138 L36.3848148,435.288103 Z"
      fill="#2F97DD"
    ></path>
  </g>
</svg>
