<svg
  width="101px"
  height="117px"
  viewBox="0 0 101 117"
  version="1.1"
  xmlns="http://www.w3.org/2000/svg"
  xmlns:xlink="http://www.w3.org/1999/xlink"
>
  <defs>
    <linearGradient
      x1="75.6774732%"
      y1="120.838682%"
      x2="16.8712742%"
      y2="-13.6640174%"
      id="linearGradient-q7qpzakjap-1"
    >
      <stop stop-color="#00E155" offset="0%"></stop>
      <stop stop-color="#003F37" offset="100%"></stop>
    </linearGradient>
    <linearGradient
      x1="42.811521%"
      y1="6.6265382%"
      x2="63.9190151%"
      y2="99.3663328%"
      id="linearGradient-q7qpzakjap-2"
    >
      <stop stop-color="#FB304F" offset="0%"></stop>
      <stop stop-color="#FFD739" offset="100%"></stop>
    </linearGradient>
  </defs>
  <g stroke="none" stroke-width="1" fill="none" fill-rule="evenodd">
    <g
      id="logo"
      transform="translate(50.405006, 58.968736) rotate(-14.000000) translate(-50.405006, -58.968736) translate(11.000000, 9.000000)"
      fill-rule="nonzero"
    >
      <path
        d="M75.4347522,51.277383 L53.8647522,28.157383 C51.2598845,25.3777287 47.4198403,24.1142035 43.6733801,24.8040215 C39.9269198,25.4938395 36.7887458,28.0422311 35.3447522,31.567383 L17.9847522,84.527383 C16.2944558,88.6630636 17.2286682,93.4079978 20.3605542,96.5942568 C23.4924402,99.7805158 28.2205935,100.796252 32.3847522,99.177383 L75.0547522,67.787383 C75.0547522,67.787383 83.2447522,60.147383 75.4347522,51.277383 L75.4347522,51.277383 Z"
        fill="url(#linearGradient-q7qpzakjap-1)"
        opacity="0.8"
      ></path>
      <path
        d="M5.03475224,47.547383 L31.7947522,71.777383 C34.7890151,73.7365989 38.5396853,74.1456711 41.8858945,72.8779878 C45.2321037,71.6103046 47.7702498,68.8187671 48.7147522,65.367383 L63.9847522,14.147383 C65.2217438,9.65400601 63.541562,4.86464317 59.7684765,2.12887797 C55.9953911,-0.606887232 50.921014,-0.71507772 47.0347522,1.857383 L5.03475224,28.857383 C1.89181224,30.9275354 0,34.4389267 0,38.202383 C0,41.9658392 1.89181224,45.4772306 5.03475224,47.547383 Z"
        fill="url(#linearGradient-q7qpzakjap-2)"
        opacity="0.9"
      ></path>
      <path
        d="M24.3547522,65.047383 L35.3547522,31.567383 C36.7987458,28.0422311 39.9369198,25.4938395 43.6833801,24.8040215 C47.4298403,24.1142035 51.2698845,25.3777287 53.8747522,28.157383 L58.3647522,32.977383 L48.7147522,65.377383 C47.767819,68.8270017 45.2286811,71.6159785 41.8828085,72.8815567 C38.5369359,74.147135 34.7876418,73.7367614 31.7947522,71.777383 L24.3547522,65.047383 Z"
        fill="#FFD739"
      ></path>
    </g>
  </g>
</svg>
