<svg
  width="295px"
  height="65px"
  viewBox="0 0 295 65"
  version="1.1"
  xmlns="http://www.w3.org/2000/svg"
  xmlns:xlink="http://www.w3.org/1999/xlink"
>
  <g id="页面-1" stroke="none" stroke-width="1" fill="none" fill-rule="evenodd">
    <g id="编组-2" fill-rule="nonzero">
      <g id="编组" transform="translate(0.000000, 0.000000)">
        <path
          d="M32.7617094,22.0086265 L19.5719658,4.68896827 C15.2191453,5.42332725 11.7073504,7.28725887 9.27863248,10.1877717 C7.88530453,11.8375196 6.88841229,13.7845236 6.36444444,15.8793957 L13.2512821,22.0017889 L35.7511111,42.0004213 L42.2208547,47.7522162 C42.3070293,47.8278627 42.3479044,47.9427268 42.3288889,48.0558059 C42.3138462,48.1446948 42.0471795,49.6681136 41.0010256,51.6250367 L48,42.0004213 L32.7617094,22.0086265 Z M34.7487179,42.0004213 L12.2475214,22.0017889 L5.7791453,16.249994 C5.69297071,16.1743475 5.65209559,16.0594832 5.67111111,15.9464042 C5.68615385,15.8575154 5.95282051,14.3340965 6.99897436,12.3771734 L0,22.0017889 L15.2382906,42.0004213 L28.4280342,59.3132418 C32.7808547,58.5788829 36.2926496,56.7149512 38.7213675,53.8144384 C40.1151004,52.1651549 41.1116315,50.2179426 41.634188,48.1228145 L34.7487179,42.0004213 Z"
          id="形状"
          fill="#2F97DD"
          opacity="0.7"
        ></path>
        <path
          d="M12.2475214,22.0017889 L0,22.0017889 C0,22.0017889 0,5.83905374 15.1124786,1.22093409 C15.5993162,1.07187426 16.0998291,0.935122122 16.6167521,0.810677678 C19.0375474,0.252075249 21.5156782,-0.0196516386 24,0.00110502878 C48,0.00110502878 48,22.0017889 48,22.0017889 L13.2512821,22.0017889 L6.36444444,15.8793957 C6.88841229,13.7845236 7.88530453,11.8375196 9.27863248,10.1877717 C11.7073504,7.28725887 15.2191453,5.42332725 19.5719658,4.68896827 C21.0355144,4.44760418 22.5166932,4.32912818 24,4.33478024 C30.4273504,4.33478024 35.5158974,6.35871186 38.7213675,10.1877717 C41.1473504,13.0855495 41.665641,16.027088 41.6711111,16.0558059 C41.7075524,16.2311368 41.8758981,16.3464392 42.0525495,16.3170586 C42.2292008,16.2876779 42.3511617,16.1240916 42.3288889,15.9464042 C42.3083761,15.8205923 41.7818803,12.8216178 39.2560684,9.79255802 C35.0413675,4.73272896 28.6331624,3.6728999 24,3.6728999 C22.3635821,3.66799278 20.7300609,3.81079431 19.1193162,4.09956656 C15.777094,4.71358366 12.2406838,6.10572041 9.47008547,8.98572041 C9.22119658,9.24281443 8.9791453,9.51084862 8.74393162,9.79255802 C8.07636514,10.5928654 7.49171896,11.4588382 6.99897436,12.3771734 C5.95282051,14.3340965 5.68615385,15.8575154 5.67111111,15.9464042 C5.65209559,16.0594832 5.69297071,16.1743475 5.7791453,16.249994 L12.2475214,22.0017889 Z M42.2208547,47.7522162 C42.3070293,47.8278627 42.3479044,47.9427268 42.3288889,48.0558059 C42.3138462,48.1446948 42.0471795,49.6681136 41.0010256,51.6250367 C40.5085984,52.5452703 39.9239435,53.4130888 39.2560684,54.2151222 C39.0208547,54.4968316 38.7788034,54.7621307 38.5299145,55.0219598 C35.7593162,57.9019598 32.2242735,59.2940965 28.8806838,59.9081136 C27.2699391,60.1968859 25.6364179,60.3396874 24,60.3347803 C19.3668376,60.3347803 12.9586325,59.2722162 8.74393162,54.2151222 C6.21538462,51.1805923 5.69162393,48.1816179 5.67111111,48.061276 C5.64883836,47.8835885 5.77079919,47.7200022 5.94745056,47.6906215 C6.12410192,47.6612409 6.29244755,47.7765433 6.32888889,47.9518743 C6.32888889,47.9805923 6.85264957,50.9221307 9.27863248,53.8199085 C12.4841026,57.6489683 17.5753846,59.6729 24,59.6729 C25.4833068,59.6785519 26.9644856,59.5600759 28.4280342,59.3187119 C32.7808547,58.584353 36.2926496,56.7204213 38.7213675,53.8199085 C40.1151004,52.170625 41.1116315,50.2234126 41.634188,48.1282846 L34.7487179,42.0004213 L0,42.0004213 C0,42.0004213 0,64.0011051 24,64.0011051 C26.4848328,64.0215207 28.9634296,63.749334 31.3846154,63.1901649 C31.902906,63.067088 32.4034188,62.9303359 32.8888889,62.7799085 C48,58.1631564 48,42.0004213 48,42.0004213 L35.7511111,42.0004213 L42.2208547,47.7522162 Z"
          id="形状"
          fill="#FD2965"
        ></path>
      </g>
      <g id="编组" transform="translate(247.000000, 0.000000)">
        <path
          d="M32.7617094,22.0086265 L19.5719658,4.68896827 C15.2191453,5.42332725 11.7073504,7.28725887 9.27863248,10.1877717 C7.88530453,11.8375196 6.88841229,13.7845236 6.36444444,15.8793957 L13.2512821,22.0017889 L35.7511111,42.0004213 L42.2208547,47.7522162 C42.3070293,47.8278627 42.3479044,47.9427268 42.3288889,48.0558059 C42.3138462,48.1446948 42.0471795,49.6681136 41.0010256,51.6250367 L48,42.0004213 L32.7617094,22.0086265 Z M34.7487179,42.0004213 L12.2475214,22.0017889 L5.7791453,16.249994 C5.69297071,16.1743475 5.65209559,16.0594832 5.67111111,15.9464042 C5.68615385,15.8575154 5.95282051,14.3340965 6.99897436,12.3771734 L0,22.0017889 L15.2382906,42.0004213 L28.4280342,59.3132418 C32.7808547,58.5788829 36.2926496,56.7149512 38.7213675,53.8144384 C40.1151004,52.1651549 41.1116315,50.2179426 41.634188,48.1228145 L34.7487179,42.0004213 Z"
          id="形状"
          fill="#2F97DD"
          opacity="0.7"
        ></path>
        <path
          d="M12.2475214,22.0017889 L0,22.0017889 C0,22.0017889 0,5.83905374 15.1124786,1.22093409 C15.5993162,1.07187426 16.0998291,0.935122122 16.6167521,0.810677678 C19.0375474,0.252075249 21.5156782,-0.0196516386 24,0.00110502878 C48,0.00110502878 48,22.0017889 48,22.0017889 L13.2512821,22.0017889 L6.36444444,15.8793957 C6.88841229,13.7845236 7.88530453,11.8375196 9.27863248,10.1877717 C11.7073504,7.28725887 15.2191453,5.42332725 19.5719658,4.68896827 C21.0355144,4.44760418 22.5166932,4.32912818 24,4.33478024 C30.4273504,4.33478024 35.5158974,6.35871186 38.7213675,10.1877717 C41.1473504,13.0855495 41.665641,16.027088 41.6711111,16.0558059 C41.7075524,16.2311368 41.8758981,16.3464392 42.0525495,16.3170586 C42.2292008,16.2876779 42.3511617,16.1240916 42.3288889,15.9464042 C42.3083761,15.8205923 41.7818803,12.8216178 39.2560684,9.79255802 C35.0413675,4.73272896 28.6331624,3.6728999 24,3.6728999 C22.3635821,3.66799278 20.7300609,3.81079431 19.1193162,4.09956656 C15.777094,4.71358366 12.2406838,6.10572041 9.47008547,8.98572041 C9.22119658,9.24281443 8.9791453,9.51084862 8.74393162,9.79255802 C8.07636514,10.5928654 7.49171896,11.4588382 6.99897436,12.3771734 C5.95282051,14.3340965 5.68615385,15.8575154 5.67111111,15.9464042 C5.65209559,16.0594832 5.69297071,16.1743475 5.7791453,16.249994 L12.2475214,22.0017889 Z M42.2208547,47.7522162 C42.3070293,47.8278627 42.3479044,47.9427268 42.3288889,48.0558059 C42.3138462,48.1446948 42.0471795,49.6681136 41.0010256,51.6250367 C40.5085984,52.5452703 39.9239435,53.4130888 39.2560684,54.2151222 C39.0208547,54.4968316 38.7788034,54.7621307 38.5299145,55.0219598 C35.7593162,57.9019598 32.2242735,59.2940965 28.8806838,59.9081136 C27.2699391,60.1968859 25.6364179,60.3396874 24,60.3347803 C19.3668376,60.3347803 12.9586325,59.2722162 8.74393162,54.2151222 C6.21538462,51.1805923 5.69162393,48.1816179 5.67111111,48.061276 C5.64883836,47.8835885 5.77079919,47.7200022 5.94745056,47.6906215 C6.12410192,47.6612409 6.29244755,47.7765433 6.32888889,47.9518743 C6.32888889,47.9805923 6.85264957,50.9221307 9.27863248,53.8199085 C12.4841026,57.6489683 17.5753846,59.6729 24,59.6729 C25.4833068,59.6785519 26.9644856,59.5600759 28.4280342,59.3187119 C32.7808547,58.584353 36.2926496,56.7204213 38.7213675,53.8199085 C40.1151004,52.170625 41.1116315,50.2234126 41.634188,48.1282846 L34.7487179,42.0004213 L0,42.0004213 C0,42.0004213 0,64.0011051 24,64.0011051 C26.4848328,64.0215207 28.9634296,63.749334 31.3846154,63.1901649 C31.902906,63.067088 32.4034188,62.9303359 32.8888889,62.7799085 C48,58.1631564 48,42.0004213 48,42.0004213 L35.7511111,42.0004213 L42.2208547,47.7522162 Z"
          id="形状"
          fill="#FD2965"
        ></path>
      </g>
      <rect
        id="矩形"
        fill="#6DB1F7"
        x="165.059829"
        y="0.136752137"
        width="18.3247863"
        height="63.8632479"
      ></rect>
      <rect
        id="矩形"
        fill-opacity="0.6"
        fill="#4B65E6"
        x="165.880342"
        y="1.23076923"
        width="13.6752137"
        height="8.61538462"
      ></rect>
      <path
        d="M167.598481,3.96581197 L167.854511,3.96581197 C167.976428,3.96581197 168.020639,3.97850606 168.06521,4.00234293 C168.109781,4.0261798 168.14476,4.06115944 168.168598,4.1057305 C168.192434,4.15030157 168.205128,4.19451166 168.205128,4.31642875 L168.205128,60.0938277 C168.205128,60.2157448 168.192434,60.2599549 168.168598,60.3045259 C168.14476,60.349097 168.109781,60.3840766 168.06521,60.4079134 C168.020639,60.4317503 167.976428,60.4444444 167.854511,60.4444444 L167.598481,60.4444444 C167.476563,60.4444444 167.432353,60.4317503 167.387781,60.4079134 C167.343211,60.3840766 167.308231,60.349097 167.284394,60.3045259 C167.260558,60.2599549 167.247863,60.2157448 167.247863,60.0938277 L167.247863,4.31642875 C167.247863,4.19451166 167.260558,4.15030157 167.284394,4.1057305 C167.308231,4.06115944 167.343211,4.0261798 167.387781,4.00234293 C167.432353,3.97850606 167.476563,3.96581197 167.598481,3.96581197 Z"
        id="路径"
        fill="#FFFFFF"
      ></path>
      <g id="形状" transform="translate(52.649573, 0.136752)">
        <path
          d="M12,0 L0,0 L0,20 L15,20 L15,64 L33,64 L33,20 L48,20 L48,0 L12,0 Z M45,4.33367521 L18.2502564,4.33367521 L18.2502564,60 C18.2502564,60.1842838 18.1382128,60.3336752 18,60.3336752 C17.8617872,60.3336752 17.7497436,60.1842838 17.7497436,60 L17.7497436,4.33367521 L3,4.33367521 C2.8617872,4.33367521 2.74974359,4.18428373 2.74974359,4 C2.74974359,3.81571627 2.8617872,3.66632479 3,3.66632479 L45,3.66632479 C45.1382128,3.66632479 45.2502564,3.81571627 45.2502564,4 C45.2502564,4.18428373 45.1382128,4.33367521 45,4.33367521 Z"
          fill="#FA991A"
        ></path>
        <path
          d="M18.2502564,22.2222222 L18.2502564,60 C18.2502564,60.1842838 18.1382128,60.3336752 18,60.3336752 C17.8617872,60.3336752 17.7497436,60.1842838 17.7497436,60 L17.7497436,20.4444444 L13.2184615,4.33367521 L12,4.33367521 L12,64 L30,64 L18.2502564,22.2222222 Z M12,0 L12,3.66632479 L13.0317949,3.66632479 L12,0 Z"
          fill="#F9D611"
          opacity="0.7"
        ></path>
      </g>
      <g id="路径" transform="translate(105.299145, 0.136752)">
        <path
          d="M27.8726147,33.2307692 L27.8726147,61.5384615 C27.8726147,61.7227453 27.7306624,61.8721368 27.5555556,61.8721368 C27.3804487,61.8721368 27.2384964,61.7227453 27.2384964,61.5384615 L27.2384964,33.2307692 C27.2390524,33.1747376 27.252899,33.1197396 27.2787785,33.0707692 L19.3691932,22.2140171 L19.3691932,64 L35.7419179,64 L35.7419179,22.2140171 L27.8323326,33.0707692 C27.8582121,33.1197396 27.8720587,33.1747376 27.8726147,33.2307692 L27.8726147,33.2307692 Z"
          fill="#FD2965"
        ></path>
        <polygon
          fill="#FD2965"
          points="19.3691932 16 19.3691932 21.117265 27.5555556 32.3555556 35.7419179 21.117265 35.7419179 16"
        ></polygon>
        <path
          d="M0,0 L19.3691932,32.0095726 L27.2384964,45.0147009 L27.2384964,33.2307692 C27.2390524,33.1747376 27.252899,33.1197396 27.2787785,33.0707692 L19.3691932,22.2140171 L4.79227054,2.20307692 C4.72263468,2.10853895 4.70621238,1.98208505 4.74918972,1.87134917 C4.79216707,1.76061331 4.8880148,1.68241887 5.00062799,1.66622096 C5.11324119,1.65002307 5.22551123,1.69828254 5.29514708,1.79282051 L19.3691932,21.117265 L27.5555556,32.3555556 L35.7419179,21.117265 L49.8172635,1.79692308 C49.8868993,1.70238511 49.9991694,1.65412563 50.1117826,1.67032353 C50.2243958,1.68652144 50.3202434,1.76471587 50.3632208,1.87545173 C50.4061982,1.98618761 50.3897759,2.11264152 50.32014,2.20717949 L35.7419179,22.2140171 L27.8323326,33.0707692 C27.8582121,33.1197396 27.8720587,33.1747376 27.8726147,33.2307692 L27.8726147,45.0147009 L35.7419179,32.0095726 L55.1111111,0 L0,0 Z"
          fill="#6228F1"
          opacity="0.7"
        ></path>
      </g>
      <rect
        id="矩形"
        fill-opacity="0"
        fill="#333333"
        x="232.34188"
        y="0.273504274"
        width="6.29059829"
        height="6.29059829"
      ></rect>
      <g id="编组" transform="translate(191.000000, 0.000000)">
        <path
          d="M17,39.2260797 L17,0 L0,0 L0,64 L51,64 L51,39.2260797 L17,39.2260797 Z M4.13124854,4.12898672 C4.13124854,3.93876045 4.29958423,3.78455159 4.50723684,3.78455159 C4.71488944,3.78455159 4.88322514,3.93876045 4.88322514,4.12898672 L4.88322514,59.5265782 L45.0723684,59.5265782 C45.2121596,59.5183673 45.3453433,59.5820269 45.4179555,59.6917631 C45.4905676,59.8014994 45.4905676,59.9391155 45.4179555,60.0488517 C45.3453433,60.158588 45.2121596,60.2222477 45.0723684,60.2140368 L4.50723684,60.2140368 C4.29958423,60.2140368 4.13124854,60.059828 4.13124854,59.8696016 L4.13124854,4.12898672 Z"
          id="形状"
          fill="#6228F1"
          opacity="0.7"
        ></path>
        <path
          d="M4.61221632,59.6668947 L44.5238823,59.6668947 C44.6627084,59.6589399 44.7949726,59.7206138 44.8670834,59.8269272 C44.9391941,59.9332405 44.9391941,60.0665641 44.8670834,60.1728774 C44.7949726,60.2791908 44.6627084,60.3408648 44.5238823,60.33291 L4.23882395,60.33291 C4.03260503,60.33291 3.86543158,60.1835113 3.86543158,59.9992185 L3.86543158,48 L2,48 L2,62 L49,62 L49,48 L4.61221632,48 L4.61221632,59.6668947 Z"
          id="路径"
          fill="#2F97DD"
        ></path>
      </g>
    </g>
  </g>
</svg>
