<svg width="200px" height="45px" viewBox="0 0 200 45" xmlns="http://www.w3.org/2000/svg">
  <g transform="translate(0, 0)">
    <rect fill="#333" fill-opacity="0" stroke-width="2" width="33" height="45"></rect>
    <svg width="33" height="45" xmlns="http://www.w3.org/2000/svg">
      <svg viewBox="0 0 351 468" xmlns="http://www.w3.org/2000/svg">
        <path
          d="M89.56 160.88H0S0 42.69 110.51 8.92c3.56-1.09 7.22-2.09 11-3A231.52 231.52 0 0 1 175.5 0C351 0 351 160.88 351 160.88H96.9l-50.36-44.77a103.38 103.38 0 0 1 21.31-41.62c17.76-21.21 43.44-34.84 75.27-40.21a194.44 194.44 0 0 1 32.38-2.59c47 0 84.21 14.8 107.65 42.8 17.74 21.19 21.53 42.7 21.57 42.91a2.44 2.44 0 0 0 4.81-.8c-.15-.92-4-22.85-22.47-45-30.82-37-77.68-44.75-111.56-44.75a198.87 198.87 0 0 0-35.69 3.12c-24.44 4.49-50.3 14.67-70.56 35.73-1.82 1.88-3.59 3.84-5.31 5.9a112.67 112.67 0 0 0-12.76 18.9c-7.65 14.31-9.6 25.45-9.71 26.1a2.42 2.42 0 0 0 .79 2.22zm219.18 188.3a2.42 2.42 0 0 1 .79 2.22c-.11.65-2.06 11.79-9.71 26.1a112.67 112.67 0 0 1-12.76 18.94c-1.72 2.06-3.49 4-5.31 5.9-20.26 21.06-46.11 31.24-70.56 35.73a198.87 198.87 0 0 1-35.69 3.12c-33.88 0-80.74-7.77-111.56-44.75-18.49-22.19-22.32-44.12-22.47-45a2.44 2.44 0 0 1 4.81-.8c0 .21 3.83 21.72 21.57 42.91 23.44 28 60.67 42.8 107.65 42.8a194.44 194.44 0 0 0 32.38-2.59c31.83-5.37 57.51-19 75.27-40.21a103.16 103.16 0 0 0 21.3-41.62l-50.35-44.81H0S0 468 175.5 468a231.52 231.52 0 0 0 54-5.93c3.79-.9 7.45-1.9 11-3C351 425.31 351 307.12 351 307.12h-89.57z"
          fill="#fd2965"
          opacity=".7"
        ></path>
        <path
          d="M281.75 402.34l-41.26 56.74L234 468l-4.52-5.93-18.29-24c24.45-4.49 50.3-14.67 70.56-35.73zM139.81 29.93l-18.29-24L117 0l-6.49 8.92-41.26 56.74c20.26-21.06 46.12-31.24 70.56-35.73zm99.76 131L143.12 34.28c-31.83 5.37-57.51 19-75.27 40.21a103.38 103.38 0 0 0-21.31 41.62l50.36 44.77 164.53 146.24 47.31 42.06a2.42 2.42 0 0 1 .79 2.22c-.11.65-2.06 11.79-9.71 26.1L351 307.12zm14.53 146.19L89.56 160.88l-47.3-42.06a2.42 2.42 0 0 1-.79-2.22c.11-.65 2.06-11.79 9.71-26.1L0 160.88l111.43 146.24 96.45 126.6c31.83-5.37 57.51-19 75.27-40.21a103.16 103.16 0 0 0 21.3-41.62z"
          fill="#2f97dd"
          opacity=".7"
        ></path>
      </svg>
    </svg>
  </g>
  <g transform="translate(37, 0)">
    <rect fill="#333" fill-opacity="0" stroke-width="2" width="45" height="45"></rect>
    <svg width="45" height="45" xmlns="http://www.w3.org/2000/svg">
      <svg viewBox="0 0 468 468">
        <path
          d="M117 0H0v146.25h146.25V468h175.5V146.25H468V0zm321.75 31.69H177.94v407.06a2.44 2.44 0 0 1-4.88 0V31.69H29.25a2.44 2.44 0 0 1 0-4.88h409.5a2.44 2.44 0 0 1 0 4.88z"
          fill="#fa991a"
          opacity=".7"
        ></path>
        <path
          d="M177.94 162.5v276.25a2.44 2.44 0 0 1-4.88 0V149.5L128.88 31.69H117V468h175.5zM117 0v26.81h10.06L117 0z"
          fill="#f9d611"
          opacity=".7"
        ></path>
      </svg>
    </svg>
  </g>
  <g transform="translate(85, 0)">
    <g>
      <g>
        <rect fill="#333" fill-opacity="0" stroke-width="2" width="40" height="45"></rect>
        <svg width="40" height="45" xmlns="http://www.w3.org/2000/svg">
          <svg viewBox="0 0 424.13 468" xmlns="http://www.w3.org/2000/svg">
            <path
              d="M214.5 243v207a2.44 2.44 0 1 1-4.88 0V243a2.46 2.46 0 0 1 .31-1.17l-60.87-79.39V468h126V162.44l-60.87 79.39a2.46 2.46 0 0 1 .31 1.17z"
              fill="#fd2965"
              opacity=".7"
            ></path>
            <path
              fill="#fd2965"
              opacity=".7"
              d="M149.06 117v37.42l63 82.18 63-82.18V117h-126z"
            ></path>
            <path
              d="M0 0l149.06 234.07 60.56 95.1V243a2.46 2.46 0 0 1 .31-1.17l-60.87-79.39L36.88 16.11a2.44 2.44 0 0 1 3.87-3l108.31 141.31 63 82.18 63-82.18L383.38 13.14a2.44 2.44 0 1 1 3.87 3l-112.19 146.3-60.87 79.39a2.46 2.46 0 0 1 .31 1.17v86.17l60.56-95.1L424.12 0z"
              fill="#6228f1"
              opacity=".7"
            ></path>
          </svg>
        </svg>
      </g>
    </g>
  </g>
  <g transform="translate(126, 0)">
    <rect fill="#333" fill-opacity="0" stroke-width="2" width="40" height="45"></rect>
    <svg width="40" height="45" xmlns="http://www.w3.org/2000/svg">
      <svg viewBox="0 0 351 453.38" xmlns="http://www.w3.org/2000/svg">
        <path
          d="M117 277.88V0H0v453.38h351v-175.5zM26.81 29.25a2.44 2.44 0 0 1 4.88 0v392.44H292.5a2.44 2.44 0 1 1 0 4.87H29.25a2.44 2.44 0 0 1-2.44-2.44V29.25z"
          fill="#6228f1"
          opacity=".7"
        ></path>
        <path
          d="M31.69 421.69H292.5a2.44 2.44 0 1 1 0 4.87H29.25a2.44 2.44 0 0 1-2.44-2.44v-87.74H14.62v102.37h307.13V336.38H31.69z"
          fill="#2f97dd"
          opacity=".7"
        ></path>
      </svg>
    </svg>
  </g>
  <g transform="translate(167, 0)">
    <rect fill="#333" fill-opacity="0" stroke-width="2" width="33" height="45"></rect>
    <svg width="33" height="45" xmlns="http://www.w3.org/2000/svg">
      <svg viewBox="0 0 351 468" xmlns="http://www.w3.org/2000/svg">
        <path
          d="M89.56 160.88H0S0 42.69 110.51 8.92c3.56-1.09 7.22-2.09 11-3A231.52 231.52 0 0 1 175.5 0C351 0 351 160.88 351 160.88H96.9l-50.36-44.77a103.38 103.38 0 0 1 21.31-41.62c17.76-21.21 43.44-34.84 75.27-40.21a194.44 194.44 0 0 1 32.38-2.59c47 0 84.21 14.8 107.65 42.8 17.74 21.19 21.53 42.7 21.57 42.91a2.44 2.44 0 0 0 4.81-.8c-.15-.92-4-22.85-22.47-45-30.82-37-77.68-44.75-111.56-44.75a198.87 198.87 0 0 0-35.69 3.12c-24.44 4.49-50.3 14.67-70.56 35.73-1.82 1.88-3.59 3.84-5.31 5.9a112.67 112.67 0 0 0-12.76 18.9c-7.65 14.31-9.6 25.45-9.71 26.1a2.42 2.42 0 0 0 .79 2.22zm219.18 188.3a2.42 2.42 0 0 1 .79 2.22c-.11.65-2.06 11.79-9.71 26.1a112.67 112.67 0 0 1-12.76 18.94c-1.72 2.06-3.49 4-5.31 5.9-20.26 21.06-46.11 31.24-70.56 35.73a198.87 198.87 0 0 1-35.69 3.12c-33.88 0-80.74-7.77-111.56-44.75-18.49-22.19-22.32-44.12-22.47-45a2.44 2.44 0 0 1 4.81-.8c0 .21 3.83 21.72 21.57 42.91 23.44 28 60.67 42.8 107.65 42.8a194.44 194.44 0 0 0 32.38-2.59c31.83-5.37 57.51-19 75.27-40.21a103.16 103.16 0 0 0 21.3-41.62l-50.35-44.81H0S0 468 175.5 468a231.52 231.52 0 0 0 54-5.93c3.79-.9 7.45-1.9 11-3C351 425.31 351 307.12 351 307.12h-89.57z"
          fill="#fd2965"
          opacity=".7"
        ></path>
        <path
          d="M281.75 402.34l-41.26 56.74L234 468l-4.52-5.93-18.29-24c24.45-4.49 50.3-14.67 70.56-35.73zM139.81 29.93l-18.29-24L117 0l-6.49 8.92-41.26 56.74c20.26-21.06 46.12-31.24 70.56-35.73zm99.76 131L143.12 34.28c-31.83 5.37-57.51 19-75.27 40.21a103.38 103.38 0 0 0-21.31 41.62l50.36 44.77 164.53 146.24 47.31 42.06a2.42 2.42 0 0 1 .79 2.22c-.11.65-2.06 11.79-9.71 26.1L351 307.12zm14.53 146.19L89.56 160.88l-47.3-42.06a2.42 2.42 0 0 1-.79-2.22c.11-.65 2.06-11.79 9.71-26.1L0 160.88l111.43 146.24 96.45 126.6c31.83-5.37 57.51-19 75.27-40.21a103.16 103.16 0 0 0 21.3-41.62z"
          fill="#2f97dd"
          opacity=".7"
        ></path>
      </svg>
    </svg>
  </g>
</svg>
